<svg xmlns:xlink="http://www.w3.org/1999/xlink" xmlns="http://www.w3.org/2000/svg" fill="none" viewBox="0 0 48 49" width="48"  height="49" ><path fill="#FFFFFF" d="M38.454 12.435a1.84 1.84 0 0 0 0-2.597 1.823 1.823 0 0 0-2.587 0 1.84 1.84 0 0 0 0 2.597 1.823 1.823 0 0 0 2.587 0M46.789 23.01c-.67 0-1.211.543-1.211 1.215s.541 1.216 1.21 1.216c.67 0 1.212-.544 1.212-1.216s-.541-1.216-1.211-1.216M46.054 18.35c.637-.207.984-.894.779-1.532a1.21 1.21 0 0 0-1.527-.781 1.22 1.22 0 0 0-.778 1.532c.206.639.89.987 1.526.781M43.173 11.835c.541-.394.66-1.154.268-1.698a1.21 1.21 0 0 0-1.692-.269 1.22 1.22 0 0 0-.268 1.698c.393.543 1.15.663 1.691.269M36.734 6.801a1.21 1.21 0 0 0 1.692-.269 1.22 1.22 0 0 0-.268-1.698 1.21 1.21 0 0 0-1.692.27 1.22 1.22 0 0 0 .268 1.697M30.752 3.743a1.21 1.21 0 0 0 1.527-.78 1.21 1.21 0 1 0-2.305-.751 1.217 1.217 0 0 0 .778 1.531M24.123 2.69c.67 0 1.21-.544 1.21-1.216 0-.673-.54-1.216-1.21-1.216S22.91.8 22.91 1.474s.542 1.215 1.212 1.215M17.493 3.743c.636-.207.984-.893.778-1.532a1.21 1.21 0 0 0-1.526-.781 1.22 1.22 0 0 0-.779 1.532c.207.639.89.987 1.527.781M18.257 10.563c.207.639.89.987 1.527.781.637-.207.983-.894.778-1.532a1.21 1.21 0 0 0-1.526-.782 1.22 1.22 0 0 0-.779 1.533M20.554 14.231a1.22 1.22 0 0 0-.778 1.533c.206.639.89.987 1.526.781.637-.208.984-.894.779-1.532a1.21 1.21 0 0 0-1.527-.782M17.074 17.977a1.21 1.21 0 0 0-1.691.27 1.22 1.22 0 0 0 .268 1.697 1.21 1.21 0 0 0 1.692-.269 1.22 1.22 0 0 0-.269-1.698M15.038 25.728a1.216 1.216 0 0 0-.557-2.367 1.216 1.216 0 0 0 .556 2.367M16.024 29.023a1.22 1.22 0 0 0-.268 1.698c.393.544 1.15.663 1.692.27.541-.395.66-1.155.268-1.699a1.21 1.21 0 0 0-1.692-.269M21.158 34.416a1.21 1.21 0 0 0 1.527-.781 1.21 1.21 0 1 0-2.305-.751 1.217 1.217 0 0 0 .778 1.532M27.691 34.219c.637-.208.984-.894.779-1.533a1.213 1.213 0 0 0-1.527-.78 1.22 1.22 0 0 0-.778 1.532c.207.638.89.987 1.526.78M30.903 28.775a1.22 1.22 0 0 0 .268 1.698 1.21 1.21 0 0 0 1.691-.27 1.22 1.22 0 0 0-.268-1.697 1.21 1.21 0 0 0-1.691.269M33.762 25.09a1.216 1.216 0 0 0-.557-2.366 1.216 1.216 0 0 0 .557 2.367M32.489 17.73a1.21 1.21 0 0 0-1.691-.27 1.22 1.22 0 0 0-.269 1.698c.393.543 1.15.663 1.692.269s.66-1.154.268-1.698M26.338 16.346a1.21 1.21 0 0 0 1.527-.781 1.211 1.211 0 1 0-2.305-.751 1.22 1.22 0 0 0 .778 1.532M11.11 14.935a1.22 1.22 0 0 0 .268 1.698 1.21 1.21 0 0 0 1.691-.27 1.22 1.22 0 0 0-.268-1.697 1.21 1.21 0 0 0-1.692.27M9.642 25.57a1.216 1.216 0 0 0-.557-2.366 1.216 1.216 0 0 0 .557 2.366M11.567 32.08a1.22 1.22 0 0 0-.268 1.697c.392.544 1.15.663 1.691.27.542-.395.66-1.155.268-1.698a1.21 1.21 0 0 0-1.691-.27M20.868 38.739a1.211 1.211 0 1 0-2.305-.751 1.21 1.21 0 1 0 2.305.751M29.988 37.887a1.21 1.21 0 0 0-1.527-.781 1.22 1.22 0 0 0-.778 1.532c.206.64.89.988 1.526.782.637-.208.984-.894.779-1.533M37.136 33.515a1.22 1.22 0 0 0-.268-1.698 1.21 1.21 0 0 0-1.692.27 1.22 1.22 0 0 0 .268 1.697 1.21 1.21 0 0 0 1.692-.269M39.157 25.249a1.216 1.216 0 0 0-.556-2.367 1.216 1.216 0 0 0 .556 2.366M36.678 16.37c.542-.393.661-1.153.269-1.697a1.21 1.21 0 0 0-1.692-.27 1.22 1.22 0 0 0-.268 1.699c.392.543 1.15.663 1.691.269M27.378 9.711a1.211 1.211 0 1 0 2.305.751 1.21 1.21 0 1 0-2.305-.751M11.51 6.801c.542-.394.662-1.154.269-1.698a1.21 1.21 0 0 0-1.692-.269 1.22 1.22 0 0 0-.268 1.698c.393.544 1.15.663 1.692.27M5.072 11.835a1.21 1.21 0 0 0 1.692-.27 1.22 1.22 0 0 0-.268-1.697 1.21 1.21 0 0 0-1.692.27 1.22 1.22 0 0 0 .268 1.697M2.94 16.038a1.21 1.21 0 0 0-1.528.782 1.211 1.211 0 1 0 2.305.751 1.22 1.22 0 0 0-.778-1.533M2.636 24.504a1.211 1.211 0 1 0-2.358-.558 1.211 1.211 0 1 0 2.358.558M2.19 30.1a1.22 1.22 0 0 0-.778 1.532c.207.64.89.988 1.527.782.636-.208.984-.894.778-1.533a1.21 1.21 0 0 0-1.526-.781M5.072 36.615a1.22 1.22 0 0 0-.268 1.698c.393.544 1.15.663 1.692.27.541-.395.66-1.155.268-1.699a1.21 1.21 0 0 0-1.692-.269M11.51 41.649a1.21 1.21 0 0 0-1.69.27 1.22 1.22 0 0 0 .267 1.697 1.21 1.21 0 0 0 1.692-.27 1.22 1.22 0 0 0-.268-1.697M17.493 44.707a1.21 1.21 0 0 0-1.526.781 1.211 1.211 0 1 0 2.305.751 1.22 1.22 0 0 0-.779-1.532M24.189 48.19a1.214 1.214 0 0 0 1.142-1.28 1.213 1.213 0 0 0-1.276-1.147c-.668.037-1.18.61-1.143 1.28.037.671.609 1.185 1.277 1.148M30.752 44.707a1.22 1.22 0 0 0-.778 1.532c.206.639.89.987 1.526.782.636-.208.984-.894.779-1.533a1.21 1.21 0 0 0-1.527-.781M36.734 41.649a1.22 1.22 0 0 0-.268 1.698c.393.543 1.15.663 1.692.269.541-.394.66-1.154.268-1.698a1.21 1.21 0 0 0-1.692-.27M43.173 36.615a1.21 1.21 0 0 0-1.692.27 1.22 1.22 0 0 0 .268 1.697 1.21 1.21 0 0 0 1.692-.269 1.22 1.22 0 0 0-.269-1.698M46.054 30.1a1.21 1.21 0 0 0-1.526.781 1.217 1.217 0 0 0 .778 1.532 1.21 1.21 0 0 0 1.527-.78 1.217 1.217 0 0 0-.779-1.533M30.864 6.9c-.46.902-.1 2.009.8 2.47s2.001.1 2.46-.802c.46-.903.1-2.01-.799-2.47a1.827 1.827 0 0 0-2.461.802M26.72 7.757a1.83 1.83 0 0 0 2.093-1.526 1.835 1.835 0 0 0-1.52-2.1 1.83 1.83 0 0 0-2.092 1.525 1.835 1.835 0 0 0 1.52 2.1M21.525 7.757a1.834 1.834 0 0 0 1.52-2.101 1.829 1.829 0 1 0-3.613.575 1.83 1.83 0 0 0 2.093 1.526M16.582 9.37a1.84 1.84 0 0 0 .799-2.47 1.825 1.825 0 0 0-2.461-.803 1.84 1.84 0 0 0-.8 2.47 1.825 1.825 0 0 0 2.462.803M12.377 12.435a1.84 1.84 0 0 0 0-2.597 1.823 1.823 0 0 0-2.588 0 1.84 1.84 0 0 0 0 2.597 1.823 1.823 0 0 0 2.588 0M6.063 14.988c-.46.902-.1 2.01.799 2.47.9.461 2.002.1 2.461-.802.46-.904.1-2.01-.8-2.47a1.827 1.827 0 0 0-2.46.802M5.623 23.143a1.83 1.83 0 0 0 2.093-1.525 1.835 1.835 0 0 0-1.52-2.101 1.83 1.83 0 0 0-2.093 1.525 1.835 1.835 0 0 0 1.52 2.101M6.196 28.933a1.834 1.834 0 0 0 1.52-2.1 1.829 1.829 0 1 0-3.613.575 1.83 1.83 0 0 0 2.093 1.525M9.323 31.794a1.827 1.827 0 0 0-2.46-.802 1.84 1.84 0 0 0-.8 2.47 1.826 1.826 0 0 0 2.46.802 1.84 1.84 0 0 0 .8-2.47M9.79 36.015a1.84 1.84 0 0 0 0 2.597 1.823 1.823 0 0 0 2.587 0 1.84 1.84 0 0 0 0-2.597 1.823 1.823 0 0 0-2.588 0M16.124 42.514a1.837 1.837 0 0 0 1.422-2.17 1.83 1.83 0 0 0-2.163-1.428 1.837 1.837 0 0 0-1.422 2.17 1.83 1.83 0 0 0 2.162 1.428M21.525 40.694a1.83 1.83 0 0 0-2.093 1.525 1.835 1.835 0 0 0 1.52 2.1 1.83 1.83 0 0 0 2.093-1.525 1.835 1.835 0 0 0-1.52-2.1M26.72 40.694a1.834 1.834 0 0 0-1.52 2.1 1.829 1.829 0 1 0 3.613-.575 1.83 1.83 0 0 0-2.093-1.525M32.92 42.504a1.837 1.837 0 0 0-.853-3.572 1.837 1.837 0 0 0 .853 3.572M35.868 36.015a1.84 1.84 0 0 0 0 2.597 1.823 1.823 0 0 0 2.588 0 1.84 1.84 0 0 0 0-2.597 1.823 1.823 0 0 0-2.588 0M42.182 33.462c.46-.904.1-2.01-.799-2.47-.9-.461-2.002-.1-2.461.802-.46.905-.1 2.01.8 2.47s2.001.1 2.46-.802M42.622 25.307a1.83 1.83 0 0 0-2.093 1.526 1.835 1.835 0 0 0 1.52 2.1 1.83 1.83 0 0 0 2.093-1.525 1.835 1.835 0 0 0-1.52-2.1M42.049 19.517a1.834 1.834 0 0 0-1.52 2.1 1.829 1.829 0 1 0 3.613-.575 1.83 1.83 0 0 0-2.093-1.525M38.922 16.656a1.827 1.827 0 0 0 2.46.802 1.84 1.84 0 0 0 .8-2.47 1.826 1.826 0 0 0-2.46-.802 1.84 1.84 0 0 0-.8 2.47M24.123 13.088c1.132 0 2.05-.922 2.05-2.059a2.055 2.055 0 0 0-2.05-2.058c-1.133 0-2.051.921-2.051 2.058s.918 2.059 2.05 2.059M17.967 14.87a2.064 2.064 0 0 0-.254-2.9 2.046 2.046 0 0 0-2.89.255 2.064 2.064 0 0 0 .255 2.9c.869.73 2.162.616 2.89-.256M13.569 20.784a2.06 2.06 0 0 0-1.317-2.594 2.05 2.05 0 0 0-2.584 1.322 2.06 2.06 0 0 0 1.317 2.593 2.05 2.05 0 0 0 2.584-1.321M10.987 26.345A2.06 2.06 0 0 0 9.67 28.94a2.05 2.05 0 0 0 2.584 1.321 2.06 2.06 0 0 0 1.316-2.594 2.05 2.05 0 0 0-2.583-1.32M17.6 33.235a2.045 2.045 0 0 0-2.864.456 2.06 2.06 0 0 0 .454 2.875 2.045 2.045 0 0 0 2.864-.456 2.06 2.06 0 0 0-.454-2.875M24.123 39.48c1.132 0 2.05-.922 2.05-2.06a2.055 2.055 0 0 0-2.05-2.058c-1.133 0-2.051.922-2.051 2.059s.918 2.059 2.05 2.059M33.055 36.566a2.064 2.064 0 0 0 .454-2.875 2.046 2.046 0 0 0-2.864-.456 2.064 2.064 0 0 0-.454 2.875 2.046 2.046 0 0 0 2.864.456M35.993 30.26a2.05 2.05 0 0 0 2.584-1.321 2.06 2.06 0 0 0-1.317-2.594 2.05 2.05 0 0 0-2.584 1.322 2.06 2.06 0 0 0 1.317 2.593M37.259 22.105a2.06 2.06 0 0 0 1.316-2.593 2.05 2.05 0 0 0-2.584-1.322 2.06 2.06 0 0 0-1.316 2.594 2.05 2.05 0 0 0 2.584 1.32M32.1 15.592a2.057 2.057 0 0 0 1.784-2.296 2.05 2.05 0 0 0-2.288-1.79 2.057 2.057 0 0 0-1.783 2.297 2.05 2.05 0 0 0 2.288 1.79"></path></svg>